<?xml version="1.0" encoding="UTF-8" standalone="no" ?>
<!DOCTYPE svg PUBLIC "-//W3C//DTD SVG 1.1//EN" "http://www.w3.org/Graphics/SVG/1.1/DTD/svg11.dtd">
<svg xmlns="http://www.w3.org/2000/svg" xmlns:xlink="http://www.w3.org/1999/xlink" version="1.1" width="500" height="500" viewBox="0 0 500 500" xml:space="preserve">
<desc>Created with Fabric.js 3.6.3</desc>
<defs>
</defs>
<g transform="matrix(0.84 0 0 0.8399999999999999 250.66740000000001 246.94633811712225)"  >
<polygon style="stroke: none; stroke-width: 1; stroke-dasharray: none; stroke-linecap: butt; stroke-dashoffset: 0; stroke-linejoin: miter; stroke-miterlimit: 4; fill: rgb(0,0,0); fill-rule: nonzero; opacity: 1;"  points="213.73499999999999,70.85499999999999 -213.735,70.85499999999999 -213.735,-70.85500000000002 -55.745000000000005,-70.85500000000002 -55.745000000000005,-65.85500000000002 -208.735,-65.85500000000002 -208.735,65.85499999999999 208.73499999999999,65.85499999999999 208.73499999999999,-65.85500000000002 55.734999999999985,-65.85500000000002 55.734999999999985,-70.85500000000002 213.73499999999999,-70.85500000000002 " />
</g>
<g transform="matrix(1 -2.4493e-16 2.4493e-16 1 258.94000000000096 250.71788811712315)" style=""  ><path fill="#000000" opacity="1" d="M-117.90-14.68L-132.47-14.68L-132.47-11.75L-126.76-11.75L-126.76 11.95L-123.61 11.95L-123.61-11.75L-117.90-11.75Z"/><path fill="#000000" opacity="1" d="M-105.84 9.02L-105.84-0.15L-96.89-0.15L-96.89-3.00L-105.84-3.00L-105.84-11.79L-96.21-11.79L-96.21-14.68L-108.96-14.68L-108.96 11.95L-95.79 11.95L-95.79 9.02Z"/><path fill="#000000" opacity="1" d="M-85.90-14.68L-85.90 11.95L-82.78 11.95L-82.78-14.68Z"/><path fill="#000000" opacity="1" d="M-64.78 12.41C-60.14 12.41-57.32 9.56-57.02 4.50L-60.10 4.50C-60.40 7.84-61.96 9.48-64.78 9.48C-67.37 9.48-69.16 7.81-69.16 4.27L-69.16-7.00C-69.16-10.57-67.44-12.25-64.89-12.25C-62.12-12.25-60.52-10.65-60.29-7.22L-57.21-7.22C-57.47-12.36-60.29-15.18-64.86-15.18C-69.31-15.18-72.28-12.25-72.28-7.00L-72.28 4.27C-72.28 9.52-69.27 12.41-64.78 12.41Z"/><path fill="#000000" opacity="1" d="M-35.82-14.68L-35.82-3.04L-44.27-3.04L-44.27-14.68L-47.43-14.68L-47.43 11.95L-44.27 11.95L-44.27-0.11L-35.82-0.11L-35.82 11.95L-32.67 11.95L-32.67-14.68Z"/><path fill="#000000" opacity="1" d="M-9.04-14.68L-23.61-14.68L-23.61-11.75L-17.90-11.75L-17.90 11.95L-14.74 11.95L-14.74-11.75L-9.04-11.75Z"/><path fill="#000000" opacity="1" d="M11.55 11.95L15.09 11.95L8.92 1.60C12.27 0.65 14.21-2.24 14.21-6.62C14.21-11.71 11.43-14.68 6.41-14.68L-0.10-14.68L-0.10 11.95L3.02 11.95L3.02 1.91L5.73 1.91ZM3.02-11.75L6.41-11.75C9.46-11.75 11.05-9.96 11.05-6.50C11.05-2.96 9.46-1.02 6.37-1.02L3.02-1.02Z"/><path fill="#000000" opacity="1" d="M27.76-17.92C28.75-17.92 29.43-18.56 29.43-19.59C29.43-20.66 28.75-21.30 27.76-21.30C26.73-21.30 26.01-20.66 26.01-19.59C26.01-18.56 26.73-17.92 27.76-17.92ZM33.01-17.92C34.04-17.92 34.72-18.56 34.72-19.59C34.72-20.66 34.04-21.30 33.01-21.30C31.98-21.30 31.26-20.66 31.26-19.59C31.26-18.56 31.98-17.92 33.01-17.92ZM35.71 11.95L38.98 11.95L32.13-14.68L28.75-14.68L21.90 11.95L25.17 11.95L26.58 6.17L34.30 6.17ZM27.26 3.28L29.43-5.74C29.85-7.45 30.23-9.70 30.38-10.72L30.50-10.72C30.65-9.70 31.03-7.45 31.45-5.74L33.62 3.28Z"/><path fill="#000000" opacity="1" d="M54.89 12.33C59.42 12.33 62.46 9.37 62.46 3.89L62.46-14.68L59.30-14.68L59.30 3.89C59.30 7.58 57.55 9.29 54.89 9.29C52.26 9.29 50.51 7.58 50.51 3.89L50.51-14.68L47.32-14.68L47.32 3.89C47.32 9.37 50.36 12.33 54.89 12.33Z"/><path fill="#000000" opacity="1" d="M89.93-14.68L85.33-3.53C84.68-1.94 83.73 0.69 83.27 2.06L83.12 2.06C82.70 0.69 81.75-1.94 81.10-3.53L76.50-14.68L73.23-14.68L73.23 11.95L76.31 11.95L76.31-0.26C76.31-3.15 76.20-5.74 76.04-8.33L76.23-8.37C76.92-6.35 77.95-3.88 78.86-1.36L81.67 5.83L84.76 5.83L87.53-1.36C88.49-3.88 89.47-6.35 90.20-8.37L90.35-8.33C90.20-5.74 90.12-3.15 90.08-0.26L90.08 11.95L93.17 11.95L93.17-14.68Z"/><path fill="#000000" opacity="1" d="M107.51 9.02L107.51-0.15L116.45-0.15L116.45-3.00L107.51-3.00L107.51-11.79L117.14-11.79L117.14-14.68L104.39-14.68L104.39 11.95L117.56 11.95L117.56 9.02Z"/><path fill="#000000" opacity="1" d=""/></g><g transform="matrix(-0.8801473653781807 0 0 0.8801473653781807 251.40242602321945 187.55179999999996)"  >
<path style="stroke: none; stroke-width: 0; stroke-dasharray: none; stroke-linecap: butt; stroke-dashoffset: 0; stroke-linejoin: miter; stroke-miterlimit: 4; fill: rgb(185,18,27); fill-rule: evenodd; opacity: 1;"  transform=" translate(-50.84786119132486, -49.03082398556911)" d="M 45.8082 22.3254 c -0.990953 -2.12246 -3.03309 -9.09928 -9.53157 -12.8139 c -4.42917 -2.53112 -9.96031 -6.90596 -10.6087 -2.00907 c -0.824416 6.21383 9.0355 17.7509 3.46302 21.8506 c -4.43744 3.26459 -10.8686 6.08627 -8.65991 9.04023 c 3.36617 4.50358 19.0809 4.46342 23.2147 1.60631 c 1.96891 1.42206 0.532681 2.57719 -1.35237 6.07328 l -10.0206 18.3982 c -1.05828 -3.64964 -13.7222 -2.50514 -16.1423 -1.59332 c -4.51657 1.70316 -6.19021 8.22999 2.56183 10.8343 c 7.12683 2.1201 5.82524 2.35986 10.3312 3.48664 c 0.348428 4.61578 0.583469 8.51582 2.8701 8.63865 c -0.0649611 0.590556 -0.0484256 1.09135 0.04252 1.52009 c -1.52245 1.06182 -2.32088 1.83309 -4.61697 2.60199 c 2.20395 -0.0330711 3.36144 -0.487799 5.10004 -1.53426 c 1.56852 1.99608 14.1769 2.78152 15.1655 1.82246 c 1.76576 1.19529 2.63152 2.49451 4.88272 2.52994 c -2.34214 -0.785439 -2.83939 -2.37994 -4.38074 -3.59058 c 0.0437011 -0.190159 0.0826778 -0.399216 0.120473 -0.630714 c 7.35124 1.41733 10.1517 -7.28982 13.0147 -6.72997 c 7.15045 -0.0673234 14.5123 0.780715 22.3336 1.58505 c 7.87565 0.809061 6.27407 -7.78353 2.53585 -10.8887 c -1.77049 -1.47048 -10.5698 -5.2654 -16.5816 -1.10788 c 6.3095 -14.3659 -0.881109 -33.7963 -14.8123 -44.1263 c 0.0791345 -7.02998 -3.44176 -8.57841 -6.98509 -4.09846 c -0.649611 -0.289372 -1.31576 -0.518508 -1.94411 -0.864574 z m -1.50119 -0.666147 c -1.92285 -4.70909 -4.34413 -8.62566 -8.51463 -11.0091 c -6.4406 -3.67916 -12.8588 -9.22448 -6.53627 5.81461 c 1.7008 4.04531 4.76815 10.793 0.461815 13.9607 c -2.08466 1.53308 -9.57173 5.59493 -8.41896 7.13628 c 2.85829 3.82208 16.7529 3.88704 21.3238 1.64765 c -4.31578 -3.34136 -4.22247 -10.1434 0.261026 -13.5828 c 3.10869 -2.78506 2.33624 3.35318 3.27168 2.06931 c 0.725203 -0.993315 0.0992134 -1.20119 1.0193 -3.40396 c -2.40356 -1.05473 -4.33232 -2.63152 -6.56462 -1.58269 c 0.7441 -1.09961 1.90041 -1.63112 3.69688 -1.05001 z m 0.2126 17.458 c -1.19174 -0.897645 -2.59136 -1.69017 -3.31656 -3.1642 c 2.27836 -0.674415 0.65906 -4.03232 2.22049 -2.82404 c 1.2567 0.970874 1.07954 -1.67009 1.07954 -1.67009 c 0.25512 -1.53545 1.56379 5.66934 2.64215 4.6276 c 7.19179 2.42246 2.44254 -9.01188 0.342522 -9.75953 c 3.51735 -8.77448 9.07566 -4.12562 4.47641 13.1942 l -1.07954 1.17284 c 0.0248033 0.863393 1.37009 0.657879 1.73978 0.210238 c 0.555122 -0.672053 2.31734 -7.7599 2.0197 -12.1312 c 2.70947 2.16734 5.49335 4.43389 7.40085 7.62171 c 1.00631 1.6819 -0.131103 -0.575201 -3.07089 -1.56852 c -1.64529 -0.553941 -4.36303 2.63388 -3.33546 3.74531 c 7.58628 8.21109 6.36383 3.79019 7.58037 4.07011 c 0.685045 0.158269 2.46852 2.06813 2.94924 3.339 c 1.40434 3.72523 1.22127 -0.160631 0.381499 -2.58545 c 5.45437 10.7032 5.50634 20.5419 0.14882 31.1636 c 5.19925 -4.34413 12.9899 -4.69019 18.6793 -0.741738 c 2.72955 1.8945 5.18744 9.03314 -1.68545 8.32802 c -7.83904 -0.804337 -15.86 -1.64056 -23.5986 -1.64056 c -4.8213 3.10987 -6.05202 8.75322 -12.691 6.42997 c -0.447641 2.69293 -0.125198 2.56656 -2.02206 2.51931 c -1.77994 -0.0437011 -9.64968 -0.646068 -11.3186 -1.31694 c 0.392129 -2.5453 5.20043 1.51419 9.23039 -0.0460634 c 1.02757 -0.396854 1.60395 0.207876 2.22994 1.24135 c -0.0980323 -4.58389 -11.7568 -2.83349 -11.758 -2.83231 c -0.764179 0.296459 -0.483075 0.90355 -0.09567 1.4445 c -0.907094 -0.551579 -0.703943 -1.43741 -0.500791 -3.31184 c -2.31616 -0.124017 -2.8701 -0.30827 -3.13231 -8.30912 c 0.466539 -0.51024 1.15631 -0.694494 1.42442 -1.96773 c 0.298821 -1.42796 3.3768 0.00708667 4.30515 1.98663 c 0.891739 1.89805 8.82645 1.90395 9.86464 0.900007 c 1.33348 -1.28977 3.47365 0.989772 5.34217 -0.158269 c 0.923629 3.91893 5.10831 0.507878 3.12876 -2.70593 c 1.4197 -2.29254 3.79137 -5.91737 2.1071 -9.69929 c -1.01812 -2.28899 -2.84884 -0.0543311 -3.10632 -2.75908 c -0.256301 -2.70593 -3.21144 -2.53821 -4.48468 -2.37403 c -3.0012 -0.399216 -10.93 -2.39411 -13.4824 2.37403 c 3.45239 -6.38155 4.89925 -9.18905 8.12605 -15.1726 c 1.32521 -2.45789 4.00633 -5.38469 1.25907 -7.62998 z m 8.64928 3.4453 c -4.6087 -0.171261 -9.75834 2.17088 -8.96582 5.28193 c 1.11024 4.35358 4.95594 -0.981504 5.09059 1.23544 c 0.100394 1.65119 -0.957882 4.38901 0.87166 5.8028 c 1.83072 1.41497 7.18825 2.57128 8.71306 2.22049 c 1.52482 -0.351971 3.60593 3.83625 3.66617 0.164175 c 0.0141733 -0.88229 -2.09057 -6.01304 0.760636 -1.64293 c 4.6713 7.1599 -0.00118111 -11.0977 -10.1363 -13.0619 z m -0.591737 32.8314 c 1.23308 0 1.23308 2.74608 0 2.74608 c -1.2319 0 -1.2319 -2.74608 0 -2.74608 z m -23.2974 -2.50159 c 0.738195 0 1.19647 2.7449 0.465358 2.7449 c -0.739376 0 -1.19647 -2.7449 -0.465358 -2.7449 z m -0.675596 1.16458 c -0.0366145 -1.39135 0.439374 -2.98821 1.17993 -3.33428 c 1.49647 -4.52248 5.02563 -9.10165 -10.3914 -7.19651 c -7.98077 0.985047 -7.53195 6.83037 -0.387405 8.95519 l 9.95323 3.39215 c -0.0448822 -0.631895 -0.336617 -1.12442 -0.354333 -1.81655 z" stroke-linecap="round" />
</g>
<g transform="matrix(1 0 0 1 250.25 325.49231543132805)" style=""  ><path fill="#000000" opacity="1" d="M-93.22 1.52L-93.22 1.52Q-93.12 0.61-93.42-0.03Q-93.73-0.67-94.22-1.15Q-94.72-1.63-95.32-2.01Q-95.92-2.40-96.43-2.81Q-96.94-3.23-97.26-3.72Q-97.58-4.21-97.50-4.91L-97.50-4.91Q-97.42-5.71-96.92-6.13Q-96.42-6.56-95.63-6.56L-95.63-6.56Q-95.09-6.56-94.79-6.40Q-94.50-6.24-94.34-6.01Q-94.19-5.77-94.14-5.50Q-94.10-5.23-94.06-5.00Q-94.02-4.77-93.94-4.61Q-93.87-4.45-93.66-4.45L-93.66-4.45Q-93.62-4.45-93.54-4.44Q-93.47-4.43-93.39-4.43L-93.39-4.43Q-93.26-4.43-93.18-4.47Q-93.09-4.51-93.06-4.64L-93.06-4.64L-92.88-6.37Q-92.86-6.54-92.88-6.72Q-92.90-6.89-93.07-6.99L-93.07-6.99L-93.09-6.99Q-93.42-7.21-93.94-7.31Q-94.45-7.41-94.86-7.41L-94.86-7.41Q-95.63-7.41-96.32-7.17Q-97.01-6.93-97.54-6.48Q-98.08-6.03-98.43-5.39Q-98.78-4.75-98.86-3.97L-98.86-3.97Q-98.93-3.34-98.83-2.91Q-98.74-2.48-98.51-2.13Q-98.29-1.79-97.94-1.50Q-97.60-1.21-97.17-0.88L-97.17-0.88Q-96.75-0.56-96.28-0.25Q-95.81 0.07-95.42 0.45Q-95.04 0.83-94.81 1.31Q-94.58 1.78-94.64 2.40L-94.64 2.40Q-94.74 3.33-95.36 3.90Q-95.98 4.47-96.91 4.47L-96.91 4.47Q-97.65 4.47-98.02 4.25Q-98.38 4.03-98.53 3.71Q-98.67 3.39-98.67 3.01L-98.67 3.01Q-98.67 2.63-98.67 2.31L-98.67 2.31Q-98.67 1.99-98.75 1.77Q-98.83 1.55-99.15 1.55L-99.15 1.55L-99.22 1.55Q-99.44 1.55-99.58 1.61Q-99.73 1.67-99.76 1.99L-99.76 1.99L-99.97 4.05Q-100.00 4.27-99.97 4.41Q-99.94 4.55-99.74 4.71L-99.74 4.71Q-99.33 5.06-98.71 5.19Q-98.10 5.31-97.54 5.31L-97.54 5.31Q-96.67 5.31-95.93 5.05Q-95.18 4.79-94.61 4.30Q-94.03 3.81-93.67 3.11Q-93.31 2.40-93.22 1.52Z"/><path fill="#000000" opacity="1" d="M-81.22 0.15L-81.22 0.15Q-81.12-0.81-81.27-1.66Q-81.42-2.51-81.86-3.14Q-82.29-3.77-83.02-4.14Q-83.74-4.51-84.78-4.51L-84.78-4.51Q-84.98-4.51-85.19-4.48Q-85.41-4.45-85.68-4.45L-85.68-4.45L-85.34-7.47Q-85.71-7.44-85.94-7.35Q-86.16-7.26-86.30-7.11Q-86.45-6.96-86.51-6.72Q-86.58-6.48-86.62-6.13L-86.62-6.13L-86.72-5.15Q-86.75-4.83-86.79-4.53Q-86.83-4.22-86.91-3.92L-86.91-3.92L-86.94-3.92Q-87.65-3.52-88.20-3.07Q-88.75-2.62-89.31-2.05L-89.31-2.05L-88.91-1.60Q-88.53-2.01-88.07-2.36Q-87.62-2.70-87.02-3.01L-87.02-3.01Q-87.30-1.31-87.54 0.39Q-87.78 2.08-87.95 3.79L-87.95 3.79Q-88.14 5.60-88.34 7.39Q-88.54 9.19-88.74 10.99L-88.74 10.99Q-88.75 11.07-88.75 11.20L-88.75 11.20Q-88.75 11.35-88.62 11.35L-88.62 11.35Q-88.43 11.35-88.31 11.29Q-88.19 11.23-88.11 11.14Q-88.03 11.04-87.96 10.91Q-87.89 10.77-87.81 10.61L-87.81 10.61Q-87.52 10.08-87.34 9.63Q-87.17 9.19-87.06 8.75Q-86.96 8.32-86.90 7.86Q-86.83 7.39-86.77 6.83L-86.77 6.83Q-86.74 6.42-86.69 6.00Q-86.64 5.59-86.61 5.17L-86.61 5.17L-86.54 5.17Q-86.38 5.17-86.13 5.22Q-85.87 5.27-85.70 5.27L-85.70 5.27Q-84.69 5.27-83.90 4.79Q-83.10 4.32-82.54 3.59Q-81.97 2.85-81.64 1.94Q-81.31 1.03-81.22 0.15ZM-82.85 0.77L-82.85 0.77Q-82.90 1.33-83.03 1.98Q-83.17 2.63-83.45 3.18Q-83.73 3.73-84.20 4.11Q-84.67 4.48-85.39 4.48L-85.39 4.48Q-85.70 4.48-85.98 4.40Q-86.26 4.32-86.51 4.15L-86.51 4.15L-85.70-3.65L-85.63-3.65Q-85.50-3.65-85.35-3.67Q-85.20-3.69-85.06-3.69L-85.06-3.69Q-84.27-3.69-83.80-3.22Q-83.33-2.75-83.10-2.07Q-82.86-1.39-82.82-0.61Q-82.78 0.16-82.85 0.77Z"/><path fill="#000000" opacity="1" d="M-70.16-2.13L-70.16-2.13Q-70.03-3.21-70.57-3.90Q-71.10-4.59-72.22-4.59L-72.22-4.59Q-73.30-4.59-74.10-3.98Q-74.90-3.37-75.45-2.47Q-76.00-1.57-76.30-0.53Q-76.61 0.50-76.70 1.36L-76.70 1.36Q-76.77 2.00-76.74 2.69Q-76.72 3.38-76.50 3.95Q-76.27 4.51-75.81 4.88Q-75.34 5.25-74.54 5.25L-74.54 5.25Q-73.70 5.25-72.88 4.87Q-72.06 4.48-71.49 3.81L-71.49 3.81Q-71.38 3.68-71.23 3.50Q-71.09 3.31-71.06 3.15L-71.06 3.15Q-71.04 3.04-71.15 2.90Q-71.26 2.75-71.38 2.75L-71.38 2.75Q-71.42 2.75-71.47 2.82L-71.47 2.82Q-71.86 3.33-72.38 3.69Q-72.90 4.05-73.54 4.05L-73.54 4.05Q-74.00 4.05-74.30 3.88Q-74.59 3.71-74.76 3.43Q-74.93 3.14-74.98 2.77Q-75.04 2.40-75.02 2.00L-75.02 2.00Q-74.11 2.00-73.28 1.71Q-72.45 1.43-71.78 0.88Q-71.12 0.34-70.69-0.42Q-70.26-1.18-70.16-2.13ZM-71.55-1.81L-71.55-1.81Q-71.62-1.21-71.86-0.66Q-72.11-0.11-72.52 0.31Q-72.93 0.74-73.46 0.99Q-74.00 1.25-74.62 1.25L-74.62 1.25Q-74.93 1.25-74.98 1.06Q-75.04 0.87-75.01 0.63L-75.01 0.63Q-74.98 0.34-74.91-0.11Q-74.85-0.56-74.74-1.05Q-74.62-1.55-74.46-2.05Q-74.29-2.54-74.05-2.94Q-73.81-3.34-73.48-3.59Q-73.15-3.84-72.74-3.84L-72.74-3.84Q-72.35-3.84-72.10-3.64Q-71.86-3.44-71.72-3.14Q-71.58-2.85-71.55-2.49Q-71.52-2.13-71.55-1.81Z"/><path fill="#000000" opacity="1" d="M-60.77 3.15L-61.17 3.03Q-61.36 3.47-61.57 3.68Q-61.78 3.89-62.29 3.89L-62.29 3.89Q-63.02 3.89-63.73 3.74Q-64.43 3.59-65.17 3.59L-65.17 3.59Q-64.77 2.93-64.38 2.27Q-64.00 1.62-63.63 0.95L-63.63 0.95Q-63.07-0.13-62.54-1.20Q-62.02-2.27-61.33-3.28L-61.33-3.28L-61.31-3.28Q-61.02-3.47-60.73-3.73Q-60.43-3.98-60.40-4.35L-60.40-4.35Q-60.38-4.46-60.43-4.60Q-60.48-4.73-60.61-4.73L-60.61-4.73Q-60.85-4.61-61.02-4.51Q-61.18-4.41-61.35-4.33Q-61.52-4.25-61.71-4.21Q-61.90-4.17-62.19-4.17L-62.19-4.17Q-62.48-4.17-62.76-4.24Q-63.04-4.30-63.32-4.39Q-63.60-4.48-63.88-4.54Q-64.16-4.61-64.45-4.61L-64.45-4.61Q-65.10-4.61-65.34-4.35Q-65.57-4.09-65.63-3.49L-65.63-3.49L-65.74-2.37L-65.28-2.37Q-65.31-2.53-65.26-2.81L-65.26-2.81Q-65.23-3.07-65.15-3.30Q-65.07-3.53-64.90-3.53L-64.90-3.53Q-64.74-3.53-64.62-3.40Q-64.50-3.26-64.35-3.11Q-64.21-2.96-64.02-2.82Q-63.84-2.69-63.52-2.69L-63.52-2.69Q-63.30-2.69-63.08-2.73Q-62.86-2.77-62.61-2.77L-62.61-2.77Q-62.82-2.45-63.02-2.11Q-63.22-1.77-63.41-1.44L-63.41-1.44Q-64.11-0.14-64.80 1.15Q-65.49 2.43-66.18 3.75L-66.18 3.75Q-66.54 3.83-66.81 4.03Q-67.07 4.24-67.10 4.63L-67.10 4.63Q-67.12 4.79-67.08 4.98Q-67.04 5.17-66.83 5.17L-66.83 5.17Q-66.69 5.17-66.58 5.09Q-66.46 5.01-66.34 4.91Q-66.22 4.80-66.08 4.72Q-65.94 4.64-65.74 4.64L-65.74 4.64Q-65.39 4.64-65.00 4.83Q-64.61 5.01-64.20 5.23Q-63.79 5.46-63.38 5.64Q-62.96 5.83-62.54 5.83L-62.54 5.83Q-62.13 5.83-61.83 5.52Q-61.54 5.22-61.34 4.79Q-61.14 4.37-61.00 3.91Q-60.86 3.46-60.77 3.15L-60.77 3.15ZM-61.20 3.03L-61.18 3.01L-61.20 3.01L-61.20 3.03ZM-61.18 3.01L-61.17 3.03L-61.17 3.01L-61.18 3.01Z"/><path fill="#000000" opacity="1" d="M-53.58 4.87L-53.58 4.87L-53.62 4.31Q-53.98 4.39-54.30 4.39L-54.30 4.39Q-54.61 4.39-54.74 4.14Q-54.88 3.89-54.93 3.55Q-54.98 3.22-54.95 2.86Q-54.93 2.50-54.91 2.27L-54.91 2.27L-54.90 2.21Q-54.82 1.49-54.78 0.77Q-54.75 0.05-54.67-0.67L-54.67-0.67Q-54.59-1.60-54.54-2.52Q-54.50-3.44-54.51-4.37L-54.51-4.37L-56.38-4.37L-56.45-3.79L-55.39-3.79Q-55.76-2.00-56.09-0.22Q-56.42 1.55-56.61 3.35L-56.61 3.35Q-56.64 3.67-56.64 4.00L-56.64 4.00Q-56.64 4.32-56.55 4.59Q-56.46 4.85-56.25 5.02Q-56.03 5.19-55.62 5.19L-55.62 5.19Q-55.10 5.19-54.60 5.07Q-54.10 4.95-53.58 4.87ZM-53.92-8.89L-53.92-8.89Q-53.90-9.07-53.90-9.29L-53.90-9.29Q-53.90-9.53-53.96-9.75Q-54.02-9.97-54.14-10.11Q-54.26-10.25-54.50-10.25L-54.50-10.25Q-54.77-10.25-54.94-10.11Q-55.12-9.97-55.23-9.75Q-55.34-9.53-55.41-9.29Q-55.47-9.04-55.49-8.83L-55.49-8.83Q-55.50-8.64-55.50-8.40L-55.50-8.40Q-55.50-8.17-55.44-7.97Q-55.38-7.76-55.24-7.62Q-55.10-7.49-54.85-7.49L-54.85-7.49Q-54.59-7.49-54.42-7.64Q-54.26-7.79-54.15-8.01Q-54.05-8.22-53.99-8.46Q-53.94-8.70-53.92-8.89Z"/><path fill="#000000" opacity="1" d="M-40.96 4.82L-40.96 4.82L-40.98 4.26Q-41.15 4.29-41.34 4.32Q-41.52 4.35-41.70 4.35L-41.70 4.35Q-42.03 4.35-42.22 4.15L-42.22 4.15Q-42.35 4.00-42.38 3.60Q-42.42 3.20-42.40 2.74Q-42.38 2.27-42.35 1.84Q-42.32 1.41-42.30 1.20L-42.30 1.20Q-42.16-0.13-42.00-1.44Q-41.84-2.75-41.70-4.08L-41.70-4.08L-41.70-4.14Q-41.66-4.37-41.70-4.56Q-41.73-4.75-42.02-4.75L-42.02-4.75L-42.05-4.75L-43.02-4.32Q-43.33-4.45-43.62-4.52Q-43.90-4.59-44.26-4.59L-44.26-4.59Q-45.04-4.59-45.69-4.31Q-46.34-4.03-46.87-3.55Q-47.41-3.07-47.82-2.45Q-48.22-1.82-48.52-1.13Q-48.82-0.43-48.99 0.28Q-49.17 0.99-49.23 1.63L-49.23 1.63Q-49.30 2.16-49.27 2.80Q-49.25 3.44-49.06 3.99Q-48.88 4.55-48.49 4.91Q-48.10 5.28-47.41 5.28L-47.41 5.28Q-46.86 5.28-46.33 5.04Q-45.79 4.80-45.32 4.38Q-44.85 3.95-44.47 3.39Q-44.10 2.82-43.86 2.15L-43.86 2.15L-43.95 3.14Q-43.98 3.47-44.00 3.83Q-44.02 4.18-43.94 4.47Q-43.86 4.77-43.63 4.96Q-43.41 5.15-42.98 5.15L-42.98 5.15Q-42.46 5.15-41.97 5.03Q-41.47 4.90-40.96 4.82ZM-43.12-2.91L-43.12-2.91Q-43.17-2.53-43.27-1.86Q-43.38-1.20-43.57-0.42Q-43.76 0.35-44.02 1.15Q-44.29 1.95-44.64 2.60Q-44.99 3.25-45.42 3.66Q-45.86 4.07-46.38 4.07L-46.38 4.07Q-46.91 4.07-47.18 3.75Q-47.44 3.43-47.54 2.97Q-47.63 2.51-47.62 2.01Q-47.60 1.51-47.57 1.12L-47.57 1.12Q-47.55 0.93-47.56 0.73Q-47.57 0.53-47.54 0.35L-47.54 0.35Q-47.46-0.40-47.31-1.13Q-47.17-1.85-46.84-2.42Q-46.51-2.99-45.93-3.33Q-45.34-3.68-44.40-3.68L-44.40-3.68L-44.34-3.68Q-44.13-3.68-43.90-3.66Q-43.66-3.65-43.49-3.57Q-43.31-3.50-43.20-3.35Q-43.09-3.20-43.12-2.91Z"/><path fill="#000000" opacity="1" d="M-33.38 4.82L-33.38 4.82L-33.39 4.26Q-33.57 4.29-33.74 4.32Q-33.92 4.35-34.10 4.35L-34.10 4.35Q-34.37 4.35-34.50 4.19Q-34.64 4.03-34.69 3.81Q-34.74 3.59-34.72 3.32Q-34.70 3.06-34.69 2.87L-34.69 2.87Q-34.58 1.35-34.47-0.14Q-34.37-1.63-34.22-3.15L-34.22-3.15Q-34.05-4.88-33.90-6.59Q-33.74-8.30-33.71-10.03L-33.71-10.03L-35.95-10.03L-36.02-9.45L-34.59-9.45Q-34.83-8.27-34.99-7.10Q-35.15-5.93-35.34-4.75L-35.34-4.75Q-35.63-2.86-35.88-1.01Q-36.13 0.83-36.32 2.72L-36.32 2.72L-36.37 3.11Q-36.40 3.44-36.41 3.80Q-36.42 4.16-36.34 4.46Q-36.26 4.75-36.04 4.95Q-35.82 5.15-35.41 5.15L-35.41 5.15Q-34.90 5.15-34.39 5.03Q-33.89 4.90-33.38 4.82Z"/><path fill="#000000" opacity="1" d="M-25.79 4.87L-25.79 4.87L-25.82 4.31Q-26.19 4.39-26.51 4.39L-26.51 4.39Q-26.82 4.39-26.95 4.14Q-27.09 3.89-27.14 3.55Q-27.18 3.22-27.16 2.86Q-27.14 2.50-27.12 2.27L-27.12 2.27L-27.10 2.21Q-27.02 1.49-26.99 0.77Q-26.96 0.05-26.88-0.67L-26.88-0.67Q-26.80-1.60-26.75-2.52Q-26.70-3.44-26.72-4.37L-26.72-4.37L-28.59-4.37L-28.66-3.79L-27.60-3.79Q-27.97-2.00-28.30-0.22Q-28.62 1.55-28.82 3.35L-28.82 3.35Q-28.85 3.67-28.85 4.00L-28.85 4.00Q-28.85 4.32-28.76 4.59Q-28.67 4.85-28.46 5.02Q-28.24 5.19-27.82 5.19L-27.82 5.19Q-27.31 5.19-26.81 5.07Q-26.30 4.95-25.79 4.87ZM-26.13-8.89L-26.13-8.89Q-26.11-9.07-26.11-9.29L-26.11-9.29Q-26.11-9.53-26.17-9.75Q-26.22-9.97-26.34-10.11Q-26.46-10.25-26.70-10.25L-26.70-10.25Q-26.98-10.25-27.15-10.11Q-27.33-9.97-27.44-9.75Q-27.55-9.53-27.62-9.29Q-27.68-9.04-27.70-8.83L-27.70-8.83Q-27.71-8.64-27.71-8.40L-27.71-8.40Q-27.71-8.17-27.65-7.97Q-27.58-7.76-27.45-7.62Q-27.31-7.49-27.06-7.49L-27.06-7.49Q-26.80-7.49-26.63-7.64Q-26.46-7.79-26.36-8.01Q-26.26-8.22-26.20-8.46Q-26.14-8.70-26.13-8.89Z"/><path fill="#000000" opacity="1" d="M-16.38 2.23L-16.38 2.23Q-16.32 1.57-16.55 1.07Q-16.78 0.58-17.17 0.18Q-17.55-0.22-18.01-0.54Q-18.46-0.86-18.86-1.19Q-19.25-1.52-19.50-1.87Q-19.74-2.22-19.70-2.67L-19.70-2.67Q-19.63-3.23-19.22-3.51Q-18.82-3.79-18.30-3.79L-18.30-3.79Q-17.71-3.79-17.50-3.56Q-17.30-3.33-17.22-3.04Q-17.15-2.75-17.11-2.52Q-17.07-2.29-16.83-2.29L-16.83-2.29L-16.77-2.29Q-16.67-2.29-16.51-2.31Q-16.35-2.33-16.34-2.43L-16.34-2.43L-16.19-3.76Q-16.18-3.92-16.19-4.06Q-16.21-4.21-16.38-4.29L-16.38-4.29Q-16.51-4.37-16.70-4.43Q-16.88-4.49-17.08-4.53Q-17.28-4.57-17.48-4.59Q-17.68-4.61-17.84-4.61L-17.84-4.61Q-18.43-4.61-18.98-4.39Q-19.54-4.17-19.97-3.80Q-20.40-3.42-20.68-2.91Q-20.96-2.40-21.02-1.79L-21.02-1.79Q-21.09-1.13-20.85-0.66Q-20.61-0.19-20.22 0.18Q-19.82 0.55-19.36 0.85Q-18.90 1.15-18.50 1.47Q-18.10 1.79-17.85 2.18Q-17.60 2.56-17.66 3.07L-17.66 3.07Q-17.70 3.39-17.85 3.66Q-18.00 3.92-18.23 4.10Q-18.46 4.27-18.75 4.37Q-19.04 4.47-19.34 4.47L-19.34 4.47Q-19.92 4.47-20.29 4.23Q-20.66 3.99-20.87 3.69Q-21.09 3.39-21.22 3.15Q-21.34 2.91-21.44 2.91L-21.44 2.91Q-21.62 2.91-21.76 3.05Q-21.90 3.19-22.01 3.37Q-22.11 3.55-22.18 3.75Q-22.24 3.95-22.26 4.08L-22.26 4.08Q-22.30 4.47-22.06 4.71Q-21.82 4.96-21.46 5.10Q-21.10 5.23-20.70 5.29Q-20.30 5.35-20.02 5.35L-20.02 5.35Q-19.34 5.35-18.72 5.11Q-18.10 4.88-17.60 4.47Q-17.10 4.07-16.78 3.49Q-16.46 2.91-16.38 2.23Z"/><path fill="#000000" opacity="1" d="M-8.78 4.87L-8.78 4.87L-8.82 4.31Q-9.18 4.39-9.50 4.39L-9.50 4.39Q-9.81 4.39-9.94 4.14Q-10.08 3.89-10.13 3.55Q-10.18 3.22-10.15 2.86Q-10.13 2.50-10.11 2.27L-10.11 2.27L-10.10 2.21Q-10.02 1.49-9.98 0.77Q-9.95 0.05-9.87-0.67L-9.87-0.67Q-9.79-1.60-9.74-2.52Q-9.70-3.44-9.71-4.37L-9.71-4.37L-11.58-4.37L-11.65-3.79L-10.59-3.79Q-10.96-2.00-11.29-0.22Q-11.62 1.55-11.81 3.35L-11.81 3.35Q-11.84 3.67-11.84 4.00L-11.84 4.00Q-11.84 4.32-11.75 4.59Q-11.66 4.85-11.45 5.02Q-11.23 5.19-10.82 5.19L-10.82 5.19Q-10.30 5.19-9.80 5.07Q-9.30 4.95-8.78 4.87ZM-9.12-8.89L-9.12-8.89Q-9.10-9.07-9.10-9.29L-9.10-9.29Q-9.10-9.53-9.16-9.75Q-9.22-9.97-9.34-10.11Q-9.46-10.25-9.70-10.25L-9.70-10.25Q-9.97-10.25-10.14-10.11Q-10.32-9.97-10.43-9.75Q-10.54-9.53-10.61-9.29Q-10.67-9.04-10.69-8.83L-10.69-8.83Q-10.70-8.64-10.70-8.40L-10.70-8.40Q-10.70-8.17-10.64-7.97Q-10.58-7.76-10.44-7.62Q-10.30-7.49-10.05-7.49L-10.05-7.49Q-9.79-7.49-9.62-7.64Q-9.46-7.79-9.35-8.01Q-9.25-8.22-9.19-8.46Q-9.14-8.70-9.12-8.89Z"/><path fill="#000000" opacity="1" d="M2.13-2.13L2.13-2.13Q2.26-3.21 1.72-3.90Q1.18-4.59 0.06-4.59L0.06-4.59Q-1.01-4.59-1.81-3.98Q-2.61-3.37-3.16-2.47Q-3.71-1.57-4.02-0.53Q-4.32 0.50-4.42 1.36L-4.42 1.36Q-4.48 2.00-4.46 2.69Q-4.43 3.38-4.21 3.95Q-3.98 4.51-3.52 4.88Q-3.06 5.25-2.26 5.25L-2.26 5.25Q-1.41 5.25-0.59 4.87Q0.22 4.48 0.80 3.81L0.80 3.81Q0.91 3.68 1.06 3.50Q1.20 3.31 1.23 3.15L1.23 3.15Q1.25 3.04 1.14 2.90Q1.02 2.75 0.91 2.75L0.91 2.75Q0.86 2.75 0.82 2.82L0.82 2.82Q0.43 3.33-0.09 3.69Q-0.61 4.05-1.25 4.05L-1.25 4.05Q-1.71 4.05-2.01 3.88Q-2.30 3.71-2.47 3.43Q-2.64 3.14-2.70 2.77Q-2.75 2.40-2.74 2.00L-2.74 2.00Q-1.82 2.00-0.99 1.71Q-0.16 1.43 0.50 0.88Q1.17 0.34 1.60-0.42Q2.03-1.18 2.13-2.13ZM0.74-1.81L0.74-1.81Q0.67-1.21 0.42-0.66Q0.18-0.11-0.23 0.31Q-0.64 0.74-1.18 0.99Q-1.71 1.25-2.34 1.25L-2.34 1.25Q-2.64 1.25-2.70 1.06Q-2.75 0.87-2.72 0.63L-2.72 0.63Q-2.69 0.34-2.62-0.11Q-2.56-0.56-2.45-1.05Q-2.34-1.55-2.17-2.05Q-2.00-2.54-1.76-2.94Q-1.52-3.34-1.19-3.59Q-0.86-3.84-0.45-3.84L-0.45-3.84Q-0.06-3.84 0.18-3.64Q0.43-3.44 0.57-3.14Q0.70-2.85 0.74-2.49Q0.77-2.13 0.74-1.81Z"/><path fill="#000000" opacity="1" d="M12.13-2.40L12.13-2.40L12.30-4.11Q12.34-4.40 12.24-4.52Q12.14-4.64 11.86-4.64L11.86-4.64Q11.26-4.64 10.70-4.21Q10.14-3.79 9.67-3.18Q9.20-2.57 8.85-1.92Q8.50-1.26 8.30-0.78L8.30-0.78L8.26-1.20Q8.27-2.00 8.30-2.78Q8.32-3.57 8.38-4.37L8.38-4.37L6.51-4.37L6.45-3.79L7.50-3.79Q7.15-2.14 6.94-0.47Q6.72 1.20 6.54 2.87L6.54 2.87L6.51 3.04Q6.50 3.25 6.47 3.59Q6.45 3.92 6.46 4.24Q6.48 4.56 6.54 4.79Q6.61 5.03 6.75 5.03L6.75 5.03L7.44 5.03Q7.78 5.03 7.86 4.79Q7.95 4.55 7.98 4.27L7.98 4.27Q8.06 3.51 8.17 2.72Q8.27 1.94 8.44 1.16Q8.61 0.39 8.87-0.37Q9.14-1.13 9.52-1.85L9.52-1.85L9.54-1.85Q9.60-2.01 9.74-2.25Q9.87-2.48 10.04-2.69Q10.21-2.89 10.41-3.05Q10.61-3.20 10.80-3.20L10.80-3.20Q11.01-3.20 11.08-3.01Q11.15-2.83 11.19-2.60Q11.23-2.37 11.32-2.18Q11.41-2.00 11.65-2.00L11.65-2.00Q11.97-2.00 12.03-2.06Q12.10-2.13 12.13-2.40Z"/><path fill="#000000" opacity="1" d="M20.70-3.93L20.70-3.93L20.75-4.37L18.56-4.37Q18.58-4.45 18.61-4.69Q18.64-4.93 18.67-5.23L18.67-5.23Q18.69-5.50 18.71-5.79Q18.74-6.08 18.74-6.30L18.74-6.30Q18.74-6.54 18.70-6.69Q18.67-6.85 18.61-6.85L18.61-6.85Q18.21-6.85 18.01-6.66Q17.81-6.48 17.70-6.20Q17.60-5.92 17.55-5.60Q17.50-5.28 17.41-5.00Q17.31-4.72 17.13-4.53Q16.94-4.35 16.59-4.35L16.59-4.35L16.42-4.35L16.32-3.45L17.14-3.45Q16.86-1.76 16.61-0.07Q16.35 1.62 16.18 3.31L16.18 3.31Q16.14 3.63 16.14 3.96Q16.13 4.29 16.22 4.55Q16.30 4.82 16.52 4.99Q16.74 5.15 17.15 5.15L17.15 5.15Q17.74 5.15 18.36 5.01Q18.98 4.87 19.57 4.71L19.57 4.71L19.49 4.15Q19.26 4.21 19.02 4.25Q18.78 4.29 18.56 4.29L18.56 4.29Q18.32 4.29 18.14 4.23Q17.95 4.16 17.87 3.91L17.87 3.91Q17.82 3.70 17.82 3.28L17.82 3.28Q17.82 2.85 17.85 2.38Q17.87 1.91 17.90 1.47Q17.94 1.03 17.97 0.77L17.97 0.77Q18.10-0.29 18.22-1.34Q18.35-2.40 18.46-3.45L18.46-3.45L20.18-3.45Q20.66-3.45 20.70-3.93ZM19.49 4.13L19.49 4.11L19.47 4.11L19.47 4.13L19.49 4.13Z"/><path fill="#000000" opacity="1" d=""/><path fill="#000000" opacity="1" d="M39.31 4.82L39.31 4.82L39.30 4.26Q39.12 4.29 38.94 4.32Q38.75 4.35 38.58 4.35L38.58 4.35Q38.24 4.35 38.05 4.15L38.05 4.15Q37.92 4.00 37.89 3.60Q37.86 3.20 37.87 2.74Q37.89 2.27 37.92 1.84Q37.95 1.41 37.97 1.20L37.97 1.20Q38.11-0.13 38.27-1.44Q38.43-2.75 38.58-4.08L38.58-4.08L38.58-4.14Q38.61-4.37 38.58-4.56Q38.54-4.75 38.26-4.75L38.26-4.75L38.22-4.75L37.25-4.32Q36.94-4.45 36.66-4.52Q36.37-4.59 36.02-4.59L36.02-4.59Q35.23-4.59 34.58-4.31Q33.94-4.03 33.40-3.55Q32.86-3.07 32.46-2.45Q32.05-1.82 31.75-1.13Q31.46-0.43 31.28 0.28Q31.10 0.99 31.04 1.63L31.04 1.63Q30.98 2.16 31.00 2.80Q31.02 3.44 31.21 3.99Q31.39 4.55 31.78 4.91Q32.18 5.28 32.86 5.28L32.86 5.28Q33.41 5.28 33.94 5.04Q34.48 4.80 34.95 4.38Q35.42 3.95 35.80 3.39Q36.18 2.82 36.42 2.15L36.42 2.15L36.32 3.14Q36.29 3.47 36.27 3.83Q36.26 4.18 36.34 4.47Q36.42 4.77 36.64 4.96Q36.86 5.15 37.30 5.15L37.30 5.15Q37.81 5.15 38.30 5.03Q38.80 4.90 39.31 4.82ZM37.15-2.91L37.15-2.91Q37.10-2.53 37.00-1.86Q36.90-1.20 36.70-0.42Q36.51 0.35 36.25 1.15Q35.98 1.95 35.63 2.60Q35.28 3.25 34.85 3.66Q34.42 4.07 33.89 4.07L33.89 4.07Q33.36 4.07 33.10 3.75Q32.83 3.43 32.74 2.97Q32.64 2.51 32.66 2.01Q32.67 1.51 32.70 1.12L32.70 1.12Q32.72 0.93 32.71 0.73Q32.70 0.53 32.74 0.35L32.74 0.35Q32.82-0.40 32.96-1.13Q33.10-1.85 33.43-2.42Q33.76-2.99 34.34-3.33Q34.93-3.68 35.87-3.68L35.87-3.68L35.94-3.68Q36.14-3.68 36.38-3.66Q36.61-3.65 36.78-3.57Q36.96-3.50 37.07-3.35Q37.18-3.20 37.15-2.91Z"/><path fill="#000000" opacity="1" d="M52.24 4.82L52.22 4.26Q52.05 4.29 51.87 4.32Q51.70 4.35 51.52 4.35L51.52 4.35Q51.09 4.35 50.99 4.07Q50.90 3.78 50.90 3.43L50.90 3.43Q50.88 2.61 50.94 1.81Q50.99 1.01 51.07 0.19L51.07 0.19Q51.20-0.96 51.34-2.09Q51.49-3.21 51.62-4.37L51.62-4.37L51.23-4.37Q50.93-4.37 50.74-4.18Q50.56-4.00 50.44-3.73Q50.32-3.47 50.26-3.17Q50.21-2.88 50.18-2.67L50.18-2.67Q50.10-2.22 49.98-1.56Q49.86-0.89 49.66-0.15Q49.47 0.59 49.19 1.35Q48.91 2.10 48.54 2.70Q48.18 3.30 47.69 3.67Q47.20 4.05 46.58 4.05L46.58 4.05Q46.11 4.05 45.89 3.82Q45.66 3.59 45.58 3.24Q45.49 2.90 45.51 2.50Q45.54 2.10 45.57 1.76L45.57 1.76Q45.65 1.09 45.70 0.43Q45.74-0.24 45.79-0.91L45.79-0.91Q45.86-1.77 45.87-2.64Q45.89-3.50 45.97-4.37L45.97-4.37L44.10-4.37L44.03-3.79L45.09-3.79Q44.77-2.30 44.48-0.84Q44.19 0.63 44.03 2.13L44.03 2.13Q43.98 2.66 43.99 3.22Q44.00 3.78 44.17 4.23Q44.34 4.67 44.71 4.96Q45.09 5.25 45.76 5.25L45.76 5.25Q46.27 5.25 46.82 5.00Q47.38 4.75 47.88 4.35Q48.38 3.94 48.78 3.39Q49.18 2.85 49.39 2.24L49.39 2.24L49.30 3.19Q49.26 3.51 49.25 3.85Q49.23 4.19 49.31 4.48Q49.39 4.77 49.60 4.96Q49.81 5.15 50.22 5.15L50.22 5.15Q50.74 5.15 51.23 5.03Q51.73 4.90 52.24 4.82L52.24 4.82ZM52.21 4.26L52.22 4.26L52.22 4.24L52.21 4.24L52.21 4.26Z"/><path fill="#000000" opacity="1" d="M64.21-8.08L64.21-8.08Q64.24-8.37 64.27-8.62Q64.30-8.88 64.34-9.09L64.34-9.09Q64.37-9.39 64.34-9.61Q64.32-9.84 64.18-9.98Q64.03-10.13 63.74-10.20Q63.44-10.27 62.93-10.27L62.93-10.27Q61.98-10.27 61.25-9.89Q60.51-9.50 59.95-8.89Q59.39-8.27 58.99-7.49Q58.59-6.70 58.34-5.89L58.34-5.89Q58.30-5.77 58.25-5.60Q58.19-5.42 58.14-5.24Q58.08-5.05 58.01-4.89Q57.94-4.73 57.87-4.65L57.87-4.65Q57.70-4.43 57.49-4.40Q57.28-4.37 57.04-4.37L57.04-4.37L56.94-3.47L57.73-3.47Q57.54-2.43 57.44-1.41L57.44-1.41L57.04 2.27Q57.01 2.59 56.97 2.93Q56.93 3.27 56.90 3.60L56.90 3.60Q56.86 3.87 56.85 4.15Q56.83 4.43 56.83 4.71L56.83 4.71Q56.83 4.88 56.98 4.97Q57.14 5.06 57.36 5.06L57.36 5.06Q57.60 5.06 57.84 4.96Q58.08 4.87 58.18 4.69L58.18 4.69Q58.24 4.55 58.32 4.17Q58.40 3.79 58.46 3.36Q58.51 2.93 58.56 2.52Q58.61 2.11 58.64 1.92L58.64 1.92Q58.77 0.67 58.85-0.57Q58.93-1.81 59.06-3.05L59.06-3.05L59.10-3.47L61.04-3.47Q61.26-3.47 61.31-3.57Q61.36-3.66 61.39-3.87L61.39-3.87L61.44-4.37L59.22-4.37L59.25-4.69Q59.30-5.09 59.37-5.59Q59.44-6.09 59.58-6.61Q59.73-7.12 59.94-7.61Q60.14-8.09 60.46-8.47Q60.77-8.85 61.19-9.08Q61.62-9.31 62.18-9.31L62.18-9.31Q62.67-9.31 62.87-9.06Q63.07-8.81 63.16-8.51Q63.25-8.21 63.32-7.96Q63.39-7.71 63.65-7.71L63.65-7.71L63.79-7.71Q64.00-7.71 64.09-7.76Q64.18-7.81 64.21-8.08Z"/><path fill="#000000" opacity="1" d=""/><path fill="#000000" opacity="1" d="M81.57 5.03L81.57 5.03L81.52 4.47Q81.33 4.53 81.07 4.53L81.07 4.53Q80.62 4.53 80.25 4.14Q79.87 3.75 79.54 3.14Q79.22 2.53 78.92 1.79Q78.62 1.06 78.34 0.35Q78.06-0.35 77.78-0.93Q77.50-1.50 77.20-1.79L77.20-1.79Q77.07-1.92 76.93-2.00Q76.78-2.08 76.61-2.16L76.61-2.16L76.59-2.16L81.66-6.43L82.45-6.43L82.53-7.07L78.77-7.07L78.69-6.43L78.75-6.43Q78.90-6.43 79.07-6.42Q79.25-6.41 79.39-6.37Q79.54-6.32 79.63-6.21Q79.73-6.11 79.71-5.92L79.71-5.92Q79.70-5.74 79.55-5.58Q79.41-5.42 79.28-5.31L79.28-5.31L79.26-5.31L74.72-1.37L74.78-1.69Q74.90-3.05 74.98-4.38Q75.07-5.71 75.17-7.07L75.17-7.07L73.06-7.07L72.98-6.43L74.05-6.43Q73.68-4.70 73.41-3.00Q73.14-1.29 72.96 0.45L72.96 0.45Q72.86 1.44 72.79 2.42Q72.72 3.39 72.69 4.39L72.69 4.39L71.86 4.39L71.79 5.03L75.07 5.03L75.14 4.39L74.08 4.39Q74.24 3.15 74.40 1.95Q74.56 0.74 74.69-0.49L74.69-0.49L74.72-0.49L75.68-1.25Q75.90-0.65 76.14-0.09Q76.38 0.48 76.64 1.06L76.64 1.06Q76.91 1.68 77.26 2.41Q77.60 3.14 78.06 3.75Q78.53 4.37 79.14 4.78Q79.76 5.19 80.59 5.19L80.59 5.19Q80.83 5.19 81.08 5.14Q81.33 5.09 81.57 5.03Z"/><path fill="#000000" opacity="1" d="M93.65-0.69L93.65-0.69Q93.73-1.42 93.64-2.14Q93.55-2.86 93.25-3.42Q92.94-3.98 92.39-4.33Q91.84-4.67 90.98-4.67L90.98-4.67Q89.86-4.67 88.96-4.09Q88.06-3.52 87.41-2.64Q86.75-1.76 86.36-0.70Q85.97 0.35 85.87 1.31L85.87 1.31Q85.79 2.07 85.87 2.79Q85.95 3.51 86.26 4.07Q86.56 4.64 87.12 4.99Q87.68 5.33 88.54 5.33L88.54 5.33Q89.70 5.33 90.59 4.76Q91.49 4.19 92.14 3.31Q92.78 2.42 93.17 1.36Q93.55 0.31 93.65-0.69ZM92.05 0.48L92.05 0.48Q92.00 1.01 91.85 1.65Q91.70 2.29 91.40 2.84Q91.10 3.39 90.64 3.77Q90.18 4.15 89.49 4.15L89.49 4.15Q88.75 4.15 88.34 3.74Q87.92 3.33 87.73 2.73Q87.54 2.13 87.52 1.44Q87.50 0.75 87.57 0.19L87.57 0.19Q87.63-0.38 87.78-1.06Q87.94-1.74 88.25-2.33Q88.56-2.91 89.06-3.30Q89.55-3.69 90.30-3.69L90.30-3.69Q91.01-3.69 91.39-3.24Q91.78-2.78 91.94-2.13Q92.10-1.47 92.10-0.75L92.10-0.75Q92.10-0.05 92.05 0.48Z"/><path fill="#000000" opacity="1" d="M100.78 4.87L100.78 4.87L100.75 4.31Q100.38 4.39 100.06 4.39L100.06 4.39Q99.76 4.39 99.62 4.14Q99.49 3.89 99.44 3.55Q99.39 3.22 99.42 2.86Q99.44 2.50 99.46 2.27L99.46 2.27L99.47 2.21Q99.55 1.49 99.58 0.77Q99.62 0.05 99.70-0.67L99.70-0.67Q99.78-1.60 99.82-2.52Q99.87-3.44 99.86-4.37L99.86-4.37L97.98-4.37L97.92-3.79L98.98-3.79Q98.61-2.00 98.28-0.22Q97.95 1.55 97.76 3.35L97.76 3.35Q97.73 3.67 97.73 4.00L97.73 4.00Q97.73 4.32 97.82 4.59Q97.90 4.85 98.12 5.02Q98.34 5.19 98.75 5.19L98.75 5.19Q99.26 5.19 99.77 5.07Q100.27 4.95 100.78 4.87ZM100.45-8.89L100.45-8.89Q100.46-9.07 100.46-9.29L100.46-9.29Q100.46-9.53 100.41-9.75Q100.35-9.97 100.23-10.11Q100.11-10.25 99.87-10.25L99.87-10.25Q99.60-10.25 99.42-10.11Q99.25-9.97 99.14-9.75Q99.02-9.53 98.96-9.29Q98.90-9.04 98.88-8.83L98.88-8.83Q98.86-8.64 98.86-8.40L98.86-8.40Q98.86-8.17 98.93-7.97Q98.99-7.76 99.13-7.62Q99.26-7.49 99.52-7.49L99.52-7.49Q99.78-7.49 99.94-7.64Q100.11-7.79 100.22-8.01Q100.32-8.22 100.38-8.46Q100.43-8.70 100.45-8.89Z"/></g><g transform="matrix(1 0 0 1 37.55859994489241 680.0406044638854)" style=""  ><path fill="#000000" opacity="1" d="M-76.74-33.53L-31.65-33.53L-31.65-29.65L-53.47-29.65L-53.47 30.46L-62.19 30.46L-62.19-29.65L-70.92-29.65Q-76.74-29.65-79.89-26.99Q-83.04-24.32-83.04-18.50L-83.04-18.50L-84.98-18.50L-84.98-25.78Q-84.98-27.23-84.64-28.64Q-84.30-30.04-83.38-31.11Q-82.46-32.17-80.86-32.85Q-79.26-33.53-76.74-33.53L-76.74-33.53Z"/><path fill="#000000" opacity="1" d="M4.31 5.25L4.12 9.13L-25.26 9.13Q-25.26 13.10-24.38 16.50Q-23.51 19.89-21.81 22.36Q-20.12 24.83-17.69 26.19Q-15.27 27.55-12.17 27.55L-12.17 27.55Q-7.42 27.55-4.27 25.51Q-1.11 23.48 1.41 19.79L1.41 19.79L3.34 21.25Q0.05 26.77-4.27 29.10Q-8.58 31.43-14.11 31.43L-14.11 31.43Q-19.24 31.43-23.03 29.53Q-26.81 27.64-29.38 24.44Q-31.95 21.25-33.21 16.93Q-34.47 12.62-34.47 7.67L-34.47 7.67Q-34.47 2.73-33.16-1.59Q-31.85-5.90-29.33-9.10Q-26.81-12.30-23.22-14.19Q-19.63-16.08-15.08-16.08L-15.08-16.08Q-5.19-16.08-0.44-10.55Q4.31-5.03 4.31 5.25L4.31 5.25ZM-25.26 5.25L-4.90 5.25Q-4.90-3.19-7.42-7.69Q-9.94-12.20-15.08-12.20L-15.08-12.20Q-17.31-12.20-19.15-10.89Q-20.99-9.58-22.35-7.26Q-23.70-4.93-24.48-1.73Q-25.26 1.47-25.26 5.25L-25.26 5.25Z"/><path fill="#000000" opacity="1" d="M34.08 22.70L28.07 12.52L15.46 30.46L10.62 30.46L26.13 8.64L17.69-5.42Q13.62-12.40 7.71-13.17L7.71-13.17L7.71-15.11L15.95-15.11Q19.24-15.11 22.01-13.03Q24.77-10.94 26.90-7.35L26.90-7.35L32.91 2.83L45.52-15.11L50.37-15.11L34.85 6.70L43.29 20.76Q47.36 27.84 53.76 28.52L53.76 28.52L53.76 30.46L45.03 30.46Q41.74 30.46 38.97 28.37Q36.21 26.29 34.08 22.70L34.08 22.70Z"/><path fill="#000000" opacity="1" d="M63.07 18.82L63.07-11.23L56.28-11.23L56.28-15.11L63.07-15.11L63.07-23.84L67.91-29.65L71.79-29.65L71.79-15.11L83.43-15.11L83.43-11.23L71.79-11.23L71.79 18.82Q71.79 27.55 78.58 27.55L78.58 27.55Q81.10 27.55 82.75 26.97Q84.39 26.38 85.85 25.61L85.85 25.61L86.82 27.55Q86.04 28.13 85.03 28.81Q84.01 29.49 82.55 30.07Q81.10 30.65 79.16 31.04Q77.22 31.43 74.70 31.43L74.70 31.43Q69.56 31.43 66.31 28.42Q63.07 25.41 63.07 18.82L63.07 18.82Z"/></g></svg>